<?xml version="1.0" standalone="no"?>
<!DOCTYPE svg PUBLIC "-//W3C//DTD SVG 20010904//EN"
 "http://www.w3.org/TR/2001/REC-SVG-20010904/DTD/svg10.dtd">
<svg version="1.0" xmlns="http://www.w3.org/2000/svg"
 width="168.000000pt" height="114.000000pt" viewBox="0 0 168.000000 114.000000"
 preserveAspectRatio="xMidYMid meet">
<metadata>
Created by potrace 1.15, written by Peter Selinger 2001-2017
</metadata>
<g transform="translate(0.000000,114.000000) scale(0.100000,-0.100000)"
fill="#000000" stroke="none">
<path d="M210 821 c-15 -29 -4 -60 23 -66 18 -4 188 -25 207 -25 3 0 2 -37 -2
-82 -3 -46 -7 -112 -7 -147 -1 -61 1 -65 38 -102 37 -37 42 -39 103 -39 68 0
88 10 88 45 0 25 -18 45 -41 45 -15 0 -16 4 -6 30 9 25 9 33 -2 39 -11 7 -13
29 -7 111 8 110 2 130 -39 130 -22 0 -23 -3 -30 -140 -5 -102 -4 -144 4 -154
10 -12 8 -13 -10 -9 -21 6 -21 9 -15 107 12 183 11 204 -14 230 -24 26 -57 34
-192 42 -81 6 -87 5 -98 -15z"/>
<path d="M1072 758 c-16 -16 -16 -58 1 -58 9 0 9 -2 0 -8 -8 -5 -15 -46 -19
-113 -6 -88 -4 -106 9 -117 9 -8 24 -12 34 -10 15 3 19 18 25 102 4 62 3 106
-3 118 -7 14 -7 23 1 33 18 21 8 60 -15 63 -11 1 -26 -3 -33 -10z"/>
<path d="M714 749 c-38 -11 -62 -36 -80 -86 -27 -78 -7 -177 42 -204 14 -7 32
-28 40 -47 11 -28 18 -33 40 -30 37 4 54 32 32 54 -15 15 -14 19 13 58 45 63
52 180 15 229 -18 24 -64 36 -102 26z"/>
<path d="M106 725 c-20 -19 -26 -33 -26 -67 0 -53 7 -63 56 -93 32 -20 36 -25
21 -30 -10 -4 -28 0 -42 9 -34 22 -35 21 -35 -25 0 -50 19 -68 73 -69 53 0 87
35 87 89 0 42 -12 59 -60 88 -32 18 -40 43 -15 43 8 0 15 -9 15 -20 0 -23 29
-27 48 -8 15 15 16 63 2 89 -16 29 -89 26 -124 -6z"/>
<path d="M293 668 c-33 -37 -43 -64 -43 -116 0 -66 31 -102 88 -102 59 0 94
49 57 80 -12 10 -18 10 -30 0 -8 -7 -23 -9 -32 -5 -14 5 -9 10 22 20 22 8 45
22 52 32 19 25 16 77 -5 96 -27 25 -84 22 -109 -5z"/>
<path d="M856 629 c-10 -96 -7 -133 10 -157 15 -22 67 -31 78 -13 4 5 18 5 36
-2 16 -6 33 -8 37 -3 4 4 9 56 11 116 l4 109 -25 6 c-38 10 -47 -1 -48 -58 -1
-63 -10 -99 -24 -95 -6 2 -9 29 -6 66 3 69 -8 92 -44 92 -20 0 -23 -6 -29 -61z"/>
</g>
</svg>
