<?xml version="1.0" standalone="no"?>
<!DOCTYPE svg PUBLIC "-//W3C//DTD SVG 20010904//EN"
 "http://www.w3.org/TR/2001/REC-SVG-20010904/DTD/svg10.dtd">
<svg version="1.0" xmlns="http://www.w3.org/2000/svg"
 width="168.000000pt" height="114.000000pt" viewBox="0 0 168.000000 114.000000"
 preserveAspectRatio="xMidYMid meet">

<g transform="translate(0.000000,114.000000) scale(0.100000,-0.100000)"
fill="#000000" stroke="none">
<path d="M231 822 c-6 -2 -11 -14 -11 -27 0 -26 13 -30 148 -41 46 -4 86 -12
88 -18 2 -6 0 -67 -4 -136 -10 -138 -3 -183 31 -204 27 -18 143 -24 159 -8 18
18 1 42 -29 42 -63 0 -102 12 -110 34 -4 11 -7 23 -6 26 0 3 4 64 7 136 9 172
12 169 -145 187 -64 7 -121 11 -128 9z"/>
<path d="M557 743 c-3 -5 -6 -66 -8 -138 l-4 -130 25 0 c21 0 25 4 23 25 -5
46 -2 204 3 212 6 10 -14 38 -27 38 -4 0 -10 -3 -12 -7z"/>
<path d="M1074 735 c-6 -16 2 -35 16 -35 14 0 41 31 35 41 -9 14 -45 11 -51
-6z"/>
<path d="M134 728 c-25 -12 -44 -48 -44 -83 0 -25 6 -33 65 -80 28 -22 29 -25
14 -40 -15 -15 -19 -16 -47 -1 -39 20 -42 20 -42 -2 0 -44 87 -73 124 -43 41
34 25 106 -29 135 -39 21 -50 42 -34 62 16 20 34 17 51 -8 18 -27 38 -16 38
22 0 44 -46 63 -96 38z"/>
<path d="M692 724 c-35 -24 -52 -68 -52 -133 0 -75 13 -109 45 -121 14 -5 27
-20 31 -35 7 -29 35 -48 58 -39 21 8 20 23 -1 46 -15 17 -15 20 4 41 29 32 40
56 48 108 8 56 -9 125 -35 139 -28 15 -72 12 -98 -6z m68 -49 c15 -18 15 -90
1 -128 -8 -19 -18 -27 -36 -27 -30 0 -40 29 -32 96 7 66 38 94 67 59z"/>
<path d="M320 667 c-54 -27 -78 -143 -37 -184 20 -20 85 -19 105 1 23 23 2 43
-26 25 -17 -10 -23 -10 -36 0 -27 22 -20 51 12 51 41 0 72 26 72 60 0 18 -8
34 -22 44 -27 19 -35 19 -68 3z m40 -42 c10 -13 10 -19 -5 -35 -35 -38 -60
-16 -35 31 13 23 23 24 40 4z"/>
<path d="M867 590 c-7 -89 -4 -106 25 -121 15 -8 26 -6 46 7 18 12 27 13 30 6
2 -7 12 -12 21 -12 14 0 20 11 25 53 3 28 6 73 6 100 0 40 -3 47 -19 47 -16 0
-21 -9 -26 -47 -11 -85 -19 -108 -40 -108 -18 0 -20 7 -20 75 0 69 -2 75 -21
78 -19 3 -21 -3 -27 -78z"/>
<path d="M1065 581 c-8 -96 -4 -111 25 -111 17 0 19 10 22 90 4 105 2 110 -22
110 -15 0 -19 -12 -25 -89z"/>
</g>
</svg>
