<?xml version="1.0" standalone="no"?>
<!DOCTYPE svg PUBLIC "-//W3C//DTD SVG 20010904//EN"
 "http://www.w3.org/TR/2001/REC-SVG-20010904/DTD/svg10.dtd">
<svg version="1.0" xmlns="http://www.w3.org/2000/svg"
 width="168.000000pt" height="57.000000pt" viewBox="0 0 168.000000 57.000000"
 preserveAspectRatio="xMidYMid meet">
<metadata>
Created by potrace 1.15, written by Peter Selinger 2001-2017
</metadata>
<g transform="translate(0.000000,57.000000) scale(0.100000,-0.100000)"
fill="#000000" stroke="none">
<path d="M170 520 c-20 -38 2 -57 77 -64 37 -4 92 -9 121 -13 l53 -5 -6 -107
c-4 -58 -8 -112 -11 -119 -6 -22 22 -77 51 -100 23 -18 41 -22 101 -22 64 0
75 3 84 21 20 36 -12 59 -80 59 -35 0 -62 5 -68 13 -8 9 -8 51 -1 140 8 107 7
132 -6 157 -18 35 -23 37 -154 50 -140 14 -149 13 -161 -10z"/>
<path d="M94 451 c-27 -12 -64 -59 -64 -82 0 -34 23 -68 56 -84 19 -9 34 -20
34 -25 0 -18 -22 -21 -45 -6 -37 25 -47 20 -43 -21 3 -34 7 -39 44 -52 34 -12
44 -12 69 0 70 34 70 103 0 150 -41 28 -51 49 -27 57 7 2 16 -5 19 -17 6 -23
32 -28 51 -9 16 16 15 63 -1 77 -20 16 -68 22 -93 12z"/>
<path d="M515 348 c-10 -155 -8 -163 34 -163 38 0 66 29 42 44 -10 7 -12 34
-10 117 l4 109 -31 3 -32 3 -7 -113z"/>
<path d="M685 446 c-45 -19 -67 -60 -72 -131 -6 -71 13 -121 51 -131 13 -3 29
-19 37 -37 11 -25 21 -33 45 -35 19 -2 36 3 45 14 12 14 10 19 -11 36 -22 18
-23 21 -7 29 9 6 27 29 38 51 28 54 24 158 -7 189 -26 26 -81 33 -119 15z"/>
<path d="M281 388 c-42 -23 -66 -65 -66 -118 0 -55 20 -85 65 -94 61 -12 118
30 85 63 -13 13 -19 14 -36 2 -18 -11 -24 -10 -36 2 -13 12 -10 15 23 20 20 3
45 14 55 23 22 20 25 76 6 93 -22 18 -70 22 -96 9z"/>
<path d="M856 368 c-11 -43 -6 -154 8 -173 16 -22 73 -25 88 -4 7 11 11 11 15
2 2 -7 17 -13 32 -13 l28 0 6 92 c6 99 0 118 -38 118 -19 0 -23 -7 -31 -72 -7
-58 -13 -74 -27 -76 -16 -3 -18 3 -16 61 2 73 -3 87 -35 87 -16 0 -26 -7 -30
-22z"/>
</g>
</svg>
